<svg width="451" height="148" viewBox="0 0 451 148" fill="none" xmlns="http://www.w3.org/2000/svg">
<path d="M245.26 44.41H243.18C242.1 44.41 241.22 45.29 241.22 46.37V48.88H241.07C239.89 46.91 238.11 45.41 235.75 44.37C233.63 43.44 231.32 42.97 228.8 42.97C222.62 42.97 217.52 45.17 213.5 49.58C211.37 51.93 209.84 54.6 208.89 57.57C207.85 54.67 206.25 52.03 204.04 49.69C199.78 45.21 194.47 42.97 188.11 42.97C182 42.97 176.79 45.21 172.48 49.69C170.33 51.91 168.73 54.36 167.66 57.03C167.22 55.7 166.68 54.43 166.01 53.24C163.99 49.59 161.01 46.86 157.07 45.04C154.11 43.66 151.17 42.97 148.24 42.97C143.09 42.97 139.03 44.56 136.05 47.74V32.37C136.05 31.29 135.17 30.41 134.09 30.41H131.3C126.99 30.41 123.49 33.91 123.49 38.22V84.46C123.49 85.54 124.37 86.42 125.45 86.42H133.57C134.65 86.42 135.53 85.54 135.53 84.46V81.95H135.68C136.69 83.87 138.43 85.37 140.89 86.46C143.03 87.39 145.3 87.86 147.69 87.86C154.09 87.86 159.27 85.66 163.21 81.25C165.19 79.04 166.65 76.51 167.59 73.68C168.68 76.45 170.35 78.98 172.64 81.25C176.98 85.61 182.21 87.79 188.34 87.79C192.92 87.79 197.07 86.42 200.79 83.69C203.99 81.33 206.51 78.22 208.35 74.37C208.59 73.86 208.21 73.27 207.65 73.27H200.41C197.94 73.27 195.6 74.16 193.57 75.57C192.02 76.65 190.27 77.19 188.34 77.19C182.58 77.19 179.3 74.54 178.51 69.25H207.97C208.6 73.94 210.39 77.98 213.39 81.33C217.33 85.69 222.47 87.87 228.8 87.87C231.34 87.87 233.67 87.41 235.78 86.5C238.24 85.44 240 83.9 241.06 81.88H241.21V84.46C241.21 85.54 242.09 86.42 243.17 86.42H251.8C252.88 86.42 253.76 85.54 253.76 84.46V52.92C253.77 48.22 249.96 44.41 245.26 44.41ZM153.34 73C151.32 75.07 148.81 76.1 145.8 76.1C142.79 76.1 140.33 75.05 138.41 72.96C136.54 70.89 135.6 68.34 135.6 65.31C135.6 62.33 136.59 59.82 138.56 57.77C140.58 55.73 143.07 54.7 146.02 54.7C148.93 54.7 151.38 55.76 153.37 57.88C155.34 59.95 156.33 62.45 156.33 65.38C156.33 68.4 155.33 70.94 153.34 73ZM178.65 60.77C179.69 55.97 182.86 53.57 188.18 53.57C193.5 53.57 196.68 55.97 197.71 60.77H178.65ZM238.26 73.04C236.26 75.08 233.75 76.11 230.72 76.11C227.79 76.11 225.3 75.07 223.26 73.01C221.26 70.97 220.27 68.48 220.27 65.55C220.27 62.5 221.23 59.95 223.15 57.9C225.12 55.78 227.62 54.72 230.65 54.72C233.71 54.72 236.23 55.73 238.23 57.75C240.22 59.77 241.22 62.32 241.22 65.4C241.21 68.45 240.23 71 238.26 73.04Z" fill="#253D7F"/>
<path d="M350.68 44.41H341.64C340.79 44.41 340.04 44.95 339.77 45.76L332.2 68.79H332.05L324.08 45.73C323.81 44.94 323.06 44.41 322.22 44.41H316.85H310.79V32.37C310.79 31.29 309.91 30.41 308.83 30.41H306.18C301.79 30.41 298.23 33.97 298.23 38.36V44.41H292.27H292.02H283.72C282.59 44.41 281.67 45.33 281.67 46.46V67.5C281.67 73.19 279.27 76.04 274.46 76.04C271.85 76.04 270.03 75.24 268.99 73.64C268.15 72.36 267.73 70.36 267.73 67.66V46.37C267.73 45.29 266.85 44.41 265.77 44.41H263.9C259.08 44.41 255.17 48.32 255.17 53.14V69.54C255.17 72.5 255.38 74.77 255.8 76.38C256.32 78.5 257.36 80.54 258.94 82.51C261.82 86.03 265.94 87.79 271.28 87.79C273.84 87.79 275.97 87.38 277.67 86.57C279.64 85.63 281.14 84.09 282.18 81.95H282.33V85.35C282.33 85.94 282.81 86.42 283.4 86.42H293.17C293.76 86.42 294.24 85.94 294.24 85.35V53.94H298.24V85.35C298.24 85.94 298.72 86.42 299.31 86.42H309.74C310.33 86.42 310.81 85.94 310.81 85.35V53.94H313.99L325.86 84.31L320.33 97.71C319.8 99 320.75 100.42 322.15 100.42H331.15C331.97 100.42 332.7 99.91 332.99 99.15L352.54 47.07C353 45.78 352.05 44.41 350.68 44.41Z" fill="#253D7F"/>
<path d="M393.34 86.42C392.26 86.42 391.38 85.54 391.38 84.46V81.95H391.23C390.19 84.09 388.69 85.63 386.72 86.57C385.02 87.38 382.89 87.79 380.33 87.79C374.99 87.79 370.87 86.03 367.99 82.51C366.41 80.54 365.37 78.49 364.85 76.38C364.43 74.78 364.22 72.5 364.22 69.54V52.64C364.22 48.1 367.9 44.41 372.45 44.41H374.82C375.9 44.41 376.78 45.29 376.78 46.37V67.65C376.78 70.36 377.2 72.35 378.04 73.63C379.07 75.23 380.9 76.03 383.51 76.03C388.31 76.03 390.72 73.18 390.72 67.49V46.37C390.72 45.29 391.6 44.41 392.68 44.41H401.31C402.39 44.41 403.27 45.29 403.27 46.37V84.45C403.27 85.53 402.39 86.41 401.31 86.41H393.34V86.42Z" fill="#ED1C24"/>
<path d="M444.77 81.24C440.85 85.65 435.91 87.85 429.95 87.85C424.73 87.85 420.52 86.11 417.31 82.64V98.45C417.31 99.53 416.43 100.41 415.35 100.41H406.72C405.64 100.41 404.76 99.53 404.76 98.45V53.8C404.76 48.61 408.97 44.41 414.15 44.41H414.58C415.66 44.41 416.54 45.29 416.54 46.37V49.02H416.8C420 44.98 424.36 42.96 429.88 42.96C436.16 42.96 441.21 45.25 445.03 49.83C448.6 54.12 450.39 59.45 450.39 65.83C450.39 71.87 448.52 77.01 444.77 81.24ZM434.83 57.86C432.81 55.77 430.3 54.72 427.29 54.72C424.28 54.72 421.78 55.77 419.79 57.86C417.8 59.9 416.8 62.44 416.8 65.47C416.8 68.43 417.8 70.94 419.79 73.01C421.84 75.08 424.34 76.11 427.29 76.11C430.27 76.11 432.77 75.07 434.79 73.01C436.81 70.94 437.82 68.43 437.82 65.47C437.83 62.44 436.83 59.9 434.83 57.86Z" fill="#ED1C24"/>
<path d="M67.72 86.09H40.97C37.19 86.09 33.02 83.03 31.64 79.25L3.22998 1.19C2.98998 0.53 3.32998 0 3.98998 0H25.58C29.36 0 33.53 3.06 34.91 6.84C34.91 6.84 54.36 61.89 61.53 79.98C61.9 80.92 62.05 81.5 63.67 83.38C65.52 85.55 67.72 86.09 67.72 86.09Z" fill="#ED1C24"/>
<path d="M95.57 86.09H73.99C70.21 86.09 66.04 83.03 64.66 79.25L47.31 31.59C47.07 30.93 47.41 30.4 48.07 30.4H69.66C73.44 30.4 77.61 33.46 78.99 37.24L96.33 84.9C96.57 85.56 96.23 86.09 95.57 86.09Z" fill="#ED1C24"/>
<path d="M30.34 83.49C30.04 83.13 29.85 82.67 29.68 82.33C26.88 76.73 20.93 59.4 20.93 59.4C20.84 59.19 20.73 59.03 20.57 58.9C20.03 58.44 19.16 58.47 18.7 59.11L1.54999 83.63L1.22999 84.09C0.639986 84.93 1.24999 86.09 2.25999 86.09H7.69999H31.13H34.45C34.44 86.09 32.21 85.67 30.34 83.49Z" fill="#253D7F"/>
<path d="M15.7 143.83H13.79L10.51 131.56H10.46L7.19 143.83H5.27L1 128.87H2.54L6.19 141.91H6.23L9.79 128.87H11.18L14.77 141.89H14.81L18.46 128.87H19.98L15.7 143.83Z" fill="#253D7F"/>
<path d="M36.22 143.83V137.75C36.22 137.16 36.14 136.61 35.99 136.11C35.81 135.52 35.54 135.06 35.17 134.71C34.5 134.08 33.7 133.76 32.77 133.76C31.84 133.76 31.03 134.08 30.36 134.71C30 135.05 29.73 135.51 29.55 136.07C29.4 136.56 29.32 137.08 29.32 137.64V143.83H27.9V128.87H29.31V134.19H29.35C30.08 133.06 31.22 132.49 32.76 132.49C34.31 132.49 35.51 132.98 36.38 133.97C37.21 134.92 37.62 136.18 37.62 137.75V143.83H36.22Z" fill="#253D7F"/>
<path d="M57.74 138.82H47.67C47.72 139.91 48.18 140.85 49.04 141.64C49.9 142.43 50.87 142.83 51.96 142.83C52.83 142.83 53.62 142.6 54.35 142.14C55.1 141.66 55.62 141.02 55.92 140.22H57.42C57.01 141.38 56.31 142.32 55.31 143.03C54.31 143.75 53.2 144.11 51.98 144.11C50.39 144.11 49.03 143.54 47.89 142.4C46.77 141.27 46.21 139.91 46.21 138.32C46.21 136.73 46.77 135.37 47.89 134.22C49.02 133.07 50.38 132.49 51.96 132.49C53.57 132.49 54.94 133.08 56.07 134.26C57.2 135.43 57.76 136.81 57.76 138.42L57.74 138.82ZM56.31 137.55C56.13 136.46 55.64 135.56 54.84 134.84C54.04 134.12 53.08 133.76 51.99 133.76C50.9 133.76 49.94 134.12 49.13 134.84C48.33 135.55 47.85 136.45 47.67 137.55H56.31Z" fill="#253D7F"/>
<path d="M70.95 133.99C68.85 134.16 67.79 135.29 67.79 137.37V143.83H66.38V132.77H67.79V134.37H67.83C68.12 133.7 68.54 133.22 69.08 132.93C69.53 132.69 70.15 132.55 70.95 132.48V133.99Z" fill="#253D7F"/>
<path d="M89.9 138.82H79.83C79.88 139.91 80.34 140.85 81.2 141.64C82.05 142.43 83.03 142.83 84.12 142.83C84.99 142.83 85.78 142.6 86.51 142.14C87.26 141.66 87.79 141.02 88.08 140.22H89.58C89.17 141.38 88.47 142.32 87.47 143.03C86.47 143.75 85.36 144.11 84.14 144.11C82.55 144.11 81.19 143.54 80.05 142.4C78.93 141.27 78.37 139.91 78.37 138.32C78.37 136.73 78.93 135.37 80.05 134.22C81.18 133.07 82.54 132.49 84.12 132.49C85.73 132.49 87.09 133.08 88.23 134.26C89.36 135.43 89.92 136.81 89.92 138.42L89.9 138.82ZM88.47 137.55C88.28 136.46 87.79 135.56 87 134.84C86.2 134.12 85.25 133.76 84.15 133.76C83.06 133.76 82.11 134.12 81.3 134.84C80.5 135.55 80.02 136.45 79.84 137.55H88.47Z" fill="#253D7F"/>
<path d="M113.17 144.1C112.18 144.1 111.37 143.78 110.73 143.13C110.09 142.48 109.77 141.67 109.77 140.68V140.55H111.18C111.21 142.06 111.87 142.82 113.16 142.82C114.54 142.82 115.22 142.16 115.22 140.83C115.22 140.18 114.96 139.67 114.42 139.29C114.21 139.14 113.93 138.99 113.59 138.85L112.65 138.49C112.25 138.34 111.94 138.2 111.7 138.08C111.37 137.91 111.1 137.72 110.88 137.53C110.35 137.04 110.08 136.38 110.08 135.56C110.08 134.66 110.38 133.92 110.98 133.35C111.57 132.78 112.32 132.49 113.23 132.49C114.08 132.49 114.79 132.78 115.37 133.36C115.95 133.94 116.24 134.65 116.24 135.5H114.83C114.76 134.34 114.21 133.76 113.17 133.76C112.05 133.76 111.49 134.31 111.49 135.42C111.49 135.97 111.76 136.41 112.29 136.74C112.5 136.87 112.77 136.99 113.12 137.12L113.35 137.21C113.4 137.23 113.48 137.26 113.59 137.3L114.06 137.48C114.44 137.63 114.76 137.78 115.01 137.91C115.34 138.09 115.61 138.29 115.83 138.51C116.37 139.06 116.63 139.79 116.63 140.71C116.64 142.98 115.48 144.1 113.17 144.1Z" fill="#253D7F"/>
<path d="M135.86 140.58C134.67 142.93 132.84 144.1 130.36 144.1C128.71 144.1 127.32 143.55 126.17 142.44C125 141.32 124.42 139.95 124.42 138.31C124.42 136.69 125.01 135.31 126.18 134.17C127.34 133.04 128.74 132.48 130.36 132.48C131.58 132.48 132.68 132.8 133.67 133.44C134.69 134.1 135.41 134.99 135.86 136.11H134.3C133.48 134.54 132.18 133.76 130.4 133.76C129.13 133.76 128.05 134.19 127.17 135.06C126.27 135.93 125.82 137 125.82 138.27C125.82 139.55 126.26 140.63 127.14 141.51C128.02 142.39 129.1 142.82 130.39 142.82C132.21 142.82 133.51 142.07 134.29 140.57H135.86V140.58Z" fill="#253D7F"/>
<path d="M144.46 131.43V128.87H145.87V131.43H144.46ZM144.46 143.83V132.77H145.87V143.83H144.46Z" fill="#253D7F"/>
<path d="M165.93 138.82H155.86C155.91 139.91 156.37 140.85 157.23 141.64C158.09 142.43 159.06 142.83 160.15 142.83C161.02 142.83 161.81 142.6 162.54 142.14C163.29 141.66 163.81 141.02 164.11 140.22H165.61C165.2 141.38 164.5 142.32 163.5 143.03C162.5 143.75 161.39 144.11 160.17 144.11C158.58 144.11 157.22 143.54 156.08 142.4C154.96 141.27 154.4 139.91 154.4 138.32C154.4 136.73 154.96 135.37 156.08 134.22C157.21 133.07 158.57 132.49 160.15 132.49C161.76 132.49 163.13 133.08 164.26 134.26C165.39 135.43 165.95 136.81 165.95 138.42L165.93 138.82ZM164.5 137.55C164.32 136.46 163.83 135.56 163.03 134.84C162.23 134.12 161.27 133.76 160.18 133.76C159.09 133.76 158.13 134.12 157.32 134.84C156.52 135.55 156.04 136.45 155.86 137.55H164.5Z" fill="#253D7F"/>
<path d="M182.89 143.83V137.75C182.89 137.16 182.81 136.61 182.65 136.11C182.47 135.52 182.2 135.06 181.83 134.71C181.16 134.08 180.36 133.76 179.43 133.76C178.5 133.76 177.69 134.08 177.02 134.71C176.66 135.05 176.39 135.51 176.21 136.07C176.06 136.56 175.98 137.08 175.98 137.64V143.83H174.57V132.77H175.98V134.18H176.02C176.75 133.05 177.89 132.48 179.43 132.48C180.98 132.48 182.18 132.97 183.05 133.96C183.88 134.91 184.3 136.17 184.3 137.74V143.82H182.89V143.83Z" fill="#253D7F"/>
<path d="M204.32 140.58C203.13 142.93 201.3 144.1 198.82 144.1C197.17 144.1 195.77 143.55 194.62 142.44C193.46 141.32 192.88 139.95 192.88 138.31C192.88 136.69 193.46 135.31 194.64 134.17C195.81 133.04 197.2 132.48 198.83 132.48C200.05 132.48 201.15 132.8 202.14 133.44C203.15 134.1 203.88 134.99 204.33 136.11H202.77C201.95 134.54 200.65 133.76 198.87 133.76C197.6 133.76 196.52 134.19 195.64 135.06C194.75 135.93 194.3 137 194.3 138.27C194.3 139.55 194.74 140.63 195.62 141.51C196.5 142.39 197.58 142.82 198.87 142.82C200.69 142.82 201.99 142.07 202.77 140.57H204.32V140.58Z" fill="#253D7F"/>
<path d="M223.89 138.82H213.82C213.87 139.91 214.33 140.85 215.19 141.64C216.05 142.43 217.02 142.83 218.11 142.83C218.98 142.83 219.77 142.6 220.5 142.14C221.25 141.66 221.77 141.02 222.07 140.22H223.57C223.16 141.38 222.46 142.32 221.46 143.03C220.46 143.75 219.35 144.11 218.13 144.11C216.54 144.11 215.18 143.54 214.04 142.4C212.92 141.27 212.36 139.91 212.36 138.32C212.36 136.73 212.92 135.37 214.04 134.22C215.17 133.07 216.53 132.49 218.11 132.49C219.72 132.49 221.09 133.08 222.22 134.26C223.35 135.43 223.91 136.81 223.91 138.42L223.89 138.82ZM222.46 137.55C222.28 136.46 221.79 135.56 220.99 134.84C220.19 134.12 219.23 133.76 218.14 133.76C217.05 133.76 216.09 134.12 215.28 134.84C214.48 135.55 214 136.45 213.82 137.55H222.46Z" fill="#253D7F"/>
<path d="M259.49 143.83V137.42C259.49 136.35 259.26 135.49 258.81 134.85C258.29 134.12 257.51 133.75 256.48 133.75C255.45 133.75 254.68 134.11 254.16 134.85C253.7 135.49 253.47 136.34 253.47 137.42V143.83H252.06V137.42C252.06 136.35 251.83 135.49 251.37 134.85C250.85 134.12 250.08 133.75 249.05 133.75C248.02 133.75 247.24 134.11 246.72 134.85C246.26 135.49 246.03 136.34 246.03 137.42V143.83H244.62V132.77H246.03V134.04C246.69 133 247.69 132.48 249.05 132.48C250.74 132.48 251.97 133.19 252.76 134.6C253.65 133.18 254.89 132.48 256.48 132.48C257.86 132.48 258.95 132.94 259.76 133.85C260.53 134.72 260.91 135.85 260.91 137.24V143.81H259.49V143.83Z" fill="#253D7F"/>
<path d="M280.99 138.82H270.92C270.97 139.91 271.43 140.85 272.29 141.64C273.15 142.43 274.12 142.83 275.21 142.83C276.08 142.83 276.87 142.6 277.6 142.14C278.35 141.66 278.87 141.02 279.17 140.22H280.67C280.26 141.38 279.56 142.32 278.56 143.03C277.56 143.75 276.45 144.11 275.23 144.11C273.64 144.11 272.28 143.54 271.14 142.4C270.02 141.27 269.46 139.91 269.46 138.32C269.46 136.73 270.02 135.37 271.14 134.22C272.27 133.07 273.63 132.49 275.21 132.49C276.82 132.49 278.19 133.08 279.32 134.26C280.45 135.43 281.01 136.81 281.01 138.42L280.99 138.82ZM279.56 137.55C279.38 136.46 278.89 135.56 278.09 134.84C277.29 134.12 276.33 133.76 275.24 133.76C274.15 133.76 273.19 134.12 272.38 134.84C271.58 135.55 271.1 136.45 270.92 137.55H279.56Z" fill="#253D7F"/>
<path d="M300.6 138.82H290.53C290.58 139.91 291.04 140.85 291.9 141.64C292.76 142.43 293.73 142.83 294.82 142.83C295.69 142.83 296.48 142.6 297.21 142.14C297.96 141.66 298.48 141.02 298.78 140.22H300.28C299.87 141.38 299.17 142.32 298.17 143.03C297.17 143.75 296.06 144.11 294.84 144.11C293.25 144.11 291.89 143.54 290.75 142.4C289.63 141.27 289.07 139.91 289.07 138.32C289.07 136.73 289.63 135.37 290.75 134.22C291.88 133.07 293.24 132.49 294.82 132.49C296.43 132.49 297.8 133.08 298.93 134.26C300.06 135.43 300.62 136.81 300.62 138.42L300.6 138.82ZM299.17 137.55C298.99 136.46 298.5 135.56 297.7 134.84C296.9 134.12 295.94 133.76 294.85 133.76C293.76 133.76 292.8 134.12 291.99 134.84C291.19 135.55 290.71 136.45 290.53 137.55H299.17Z" fill="#253D7F"/>
<path d="M311.95 134.05V143.83H310.54V134.05H308.21V132.78H310.54V128.87H311.95V132.78H314.6V134.05H311.95Z" fill="#253D7F"/>
<path d="M325.12 144.1C324.13 144.1 323.32 143.78 322.68 143.13C322.04 142.48 321.72 141.67 321.72 140.68V140.55H323.13C323.16 142.06 323.82 142.82 325.11 142.82C326.49 142.82 327.17 142.16 327.17 140.83C327.17 140.18 326.91 139.67 326.37 139.29C326.16 139.14 325.88 138.99 325.54 138.85L324.6 138.49C324.2 138.34 323.89 138.2 323.65 138.08C323.32 137.91 323.05 137.72 322.83 137.53C322.3 137.04 322.03 136.38 322.03 135.56C322.03 134.66 322.33 133.92 322.93 133.35C323.52 132.78 324.27 132.49 325.18 132.49C326.03 132.49 326.74 132.78 327.32 133.36C327.9 133.94 328.19 134.65 328.19 135.5H326.78C326.71 134.34 326.16 133.76 325.12 133.76C324 133.76 323.44 134.31 323.44 135.42C323.44 135.97 323.71 136.41 324.24 136.74C324.45 136.87 324.72 136.99 325.07 137.12L325.3 137.21C325.35 137.23 325.43 137.26 325.54 137.3L326.01 137.48C326.39 137.63 326.71 137.78 326.96 137.91C327.29 138.09 327.56 138.29 327.78 138.51C328.32 139.06 328.58 139.79 328.58 140.71C328.6 142.98 327.44 144.1 325.12 144.1Z" fill="#253D7F"/>
<path d="M358.97 142.43C357.83 143.54 356.42 144.1 354.76 144.1C352.9 144.1 351.46 143.36 350.45 141.89H350.41V143.83H349V128.87H350.41V134.71H350.45C351.49 133.23 352.93 132.49 354.76 132.49C356.4 132.49 357.8 133.04 358.94 134.14C360.11 135.25 360.7 136.63 360.7 138.28C360.7 139.94 360.12 141.32 358.97 142.43ZM358 135.07C357.15 134.2 356.06 133.77 354.76 133.77C353.51 133.77 352.46 134.22 351.6 135.12C350.75 136.01 350.33 137.07 350.33 138.32C350.33 139.56 350.75 140.62 351.6 141.5C352.46 142.39 353.51 142.83 354.76 142.83C356.05 142.83 357.13 142.4 357.99 141.56C358.85 140.7 359.28 139.63 359.28 138.34C359.28 137.03 358.86 135.94 358 135.07Z" fill="#253D7F"/>
<path d="M380.15 138.82H370.08C370.13 139.91 370.59 140.85 371.45 141.64C372.3 142.43 373.28 142.83 374.37 142.83C375.24 142.83 376.03 142.6 376.76 142.14C377.51 141.66 378.04 141.02 378.33 140.22H379.83C379.42 141.38 378.72 142.32 377.72 143.03C376.72 143.75 375.61 144.11 374.39 144.11C372.8 144.11 371.44 143.54 370.3 142.4C369.18 141.27 368.62 139.91 368.62 138.32C368.62 136.73 369.18 135.37 370.3 134.22C371.43 133.07 372.79 132.49 374.37 132.49C375.98 132.49 377.34 133.08 378.48 134.26C379.61 135.43 380.17 136.81 380.17 138.42L380.15 138.82ZM378.72 137.55C378.53 136.46 378.04 135.56 377.25 134.84C376.45 134.12 375.5 133.76 374.4 133.76C373.31 133.76 372.36 134.12 371.55 134.84C370.75 135.55 370.27 136.45 370.09 137.55H378.72Z" fill="#253D7F"/>
<path d="M398.62 143.83V141.89H398.58C397.6 143.36 396.17 144.1 394.28 144.1C392.62 144.1 391.21 143.54 390.06 142.43C388.91 141.32 388.33 139.93 388.33 138.27C388.33 136.63 388.91 135.25 390.07 134.13C391.22 133.03 392.62 132.48 394.27 132.48C396.2 132.48 397.63 133.22 398.57 134.7H398.61V132.76H400.03V143.82H398.62V143.83ZM397.43 135.12C396.57 134.22 395.52 133.77 394.27 133.77C392.96 133.77 391.88 134.2 391.02 135.07C390.17 135.94 389.74 137.03 389.74 138.34C389.74 139.63 390.17 140.7 391.03 141.56C391.89 142.41 392.97 142.83 394.27 142.83C395.51 142.83 396.56 142.38 397.43 141.5C398.28 140.62 398.71 139.56 398.71 138.32C398.7 137.07 398.28 136.01 397.43 135.12Z" fill="#253D7F"/>
<path d="M417.35 143.83V142.11H417.31C417 142.76 416.51 143.26 415.84 143.61C415.23 143.93 414.53 144.09 413.77 144.09C412.11 144.09 410.84 143.54 409.97 142.43C409.61 141.97 409.35 141.41 409.19 140.74C409.07 140.2 409 139.57 409 138.86V132.76H410.41V138.84C410.41 140.08 410.65 141.02 411.14 141.68C411.7 142.43 412.57 142.81 413.76 142.81C414.69 142.81 415.48 142.51 416.11 141.91C416.56 141.48 416.87 140.98 417.05 140.39C417.19 139.92 417.27 139.33 417.27 138.6V132.75H418.68V143.81H417.35V143.83Z" fill="#253D7F"/>
<path d="M430.52 134.05V143.83H429.11V134.05H426.78V132.78H429.11V128.87H430.52V132.78H433.17V134.05H430.52Z" fill="#253D7F"/>
<path d="M443.98 147.71H442.51L444.43 143.47L440.13 132.78H441.63L445.14 141.6L448.9 132.78H450.39L443.98 147.71Z" fill="#253D7F"/>
</svg>
