<svg width="450" height="148" viewBox="0 0 450 148" fill="none" xmlns="http://www.w3.org/2000/svg">
<path d="M244.26 44.41H242.18C241.1 44.41 240.22 45.29 240.22 46.37V48.88H240.07C238.89 46.91 237.11 45.41 234.75 44.37C232.63 43.44 230.32 42.97 227.8 42.97C221.62 42.97 216.52 45.17 212.5 49.58C210.37 51.93 208.84 54.6 207.89 57.57C206.85 54.67 205.25 52.03 203.04 49.69C198.78 45.21 193.47 42.97 187.11 42.97C181 42.97 175.79 45.21 171.48 49.69C169.33 51.91 167.73 54.36 166.66 57.03C166.22 55.7 165.68 54.43 165.01 53.24C162.99 49.59 160.01 46.86 156.07 45.04C153.11 43.66 150.17 42.97 147.24 42.97C142.09 42.97 138.03 44.56 135.05 47.74V32.37C135.05 31.29 134.17 30.41 133.09 30.41H130.3C125.99 30.41 122.49 33.91 122.49 38.22V84.46C122.49 85.54 123.37 86.42 124.45 86.42H132.57C133.65 86.42 134.53 85.54 134.53 84.46V81.95H134.68C135.69 83.87 137.43 85.37 139.89 86.46C142.03 87.39 144.3 87.86 146.69 87.86C153.09 87.86 158.27 85.66 162.21 81.25C164.19 79.04 165.65 76.51 166.59 73.68C167.68 76.45 169.35 78.98 171.64 81.25C175.98 85.61 181.21 87.79 187.34 87.79C191.92 87.79 196.07 86.42 199.79 83.69C202.99 81.33 205.51 78.22 207.35 74.37C207.59 73.86 207.21 73.27 206.65 73.27H199.41C196.94 73.27 194.6 74.16 192.57 75.57C191.02 76.65 189.27 77.19 187.34 77.19C181.58 77.19 178.3 74.54 177.51 69.25H206.97C207.6 73.94 209.39 77.98 212.39 81.33C216.33 85.69 221.47 87.87 227.8 87.87C230.34 87.87 232.67 87.41 234.78 86.5C237.24 85.44 239 83.9 240.06 81.88H240.21V84.46C240.21 85.54 241.09 86.42 242.17 86.42H250.8C251.88 86.42 252.76 85.54 252.76 84.46V52.92C252.78 48.22 248.96 44.41 244.26 44.41ZM152.34 73C150.32 75.07 147.81 76.1 144.8 76.1C141.79 76.1 139.33 75.05 137.41 72.96C135.54 70.89 134.6 68.34 134.6 65.31C134.6 62.33 135.59 59.82 137.56 57.77C139.58 55.73 142.07 54.7 145.02 54.7C147.93 54.7 150.38 55.76 152.37 57.88C154.34 59.95 155.33 62.45 155.33 65.38C155.33 68.4 154.34 70.94 152.34 73ZM177.65 60.77C178.69 55.97 181.86 53.57 187.18 53.57C192.5 53.57 195.68 55.97 196.71 60.77H177.65ZM237.26 73.04C235.26 75.08 232.75 76.11 229.72 76.11C226.79 76.11 224.3 75.07 222.26 73.01C220.26 70.97 219.27 68.48 219.27 65.55C219.27 62.5 220.23 59.95 222.15 57.9C224.12 55.78 226.62 54.72 229.65 54.72C232.71 54.72 235.23 55.73 237.23 57.75C239.22 59.77 240.22 62.32 240.22 65.4C240.21 68.45 239.23 71 237.26 73.04Z" fill="white"/>
<path d="M349.69 44.41H340.65C339.8 44.41 339.05 44.95 338.78 45.76L331.21 68.79H331.06L323.09 45.73C322.82 44.94 322.07 44.41 321.23 44.41H315.86H309.8V32.37C309.8 31.29 308.92 30.41 307.84 30.41H305.19C300.8 30.41 297.24 33.97 297.24 38.36V44.41H291.28H291.03H282.73C281.6 44.41 280.68 45.33 280.68 46.46V67.5C280.68 73.19 278.28 76.04 273.47 76.04C270.86 76.04 269.04 75.24 268 73.64C267.16 72.36 266.74 70.36 266.74 67.66V46.37C266.74 45.29 265.86 44.41 264.78 44.41H262.91C258.09 44.41 254.18 48.32 254.18 53.14V69.54C254.18 72.5 254.39 74.77 254.81 76.38C255.33 78.5 256.37 80.54 257.95 82.51C260.83 86.03 264.95 87.79 270.29 87.79C272.85 87.79 274.98 87.38 276.68 86.57C278.65 85.63 280.15 84.09 281.19 81.95H281.34V85.35C281.34 85.94 281.82 86.42 282.41 86.42H292.18C292.77 86.42 293.25 85.94 293.25 85.35V53.94H297.25V85.35C297.25 85.94 297.73 86.42 298.32 86.42H308.75C309.34 86.42 309.82 85.94 309.82 85.35V53.94H313L324.87 84.31L319.34 97.71C318.81 99 319.76 100.42 321.16 100.42H330.16C330.98 100.42 331.71 99.91 332 99.15L351.55 47.07C352.01 45.78 351.06 44.41 349.69 44.41Z" fill="white"/>
<path d="M392.34 86.42C391.26 86.42 390.38 85.54 390.38 84.46V81.95H390.23C389.19 84.09 387.69 85.63 385.72 86.57C384.02 87.38 381.89 87.79 379.33 87.79C373.99 87.79 369.87 86.03 366.99 82.51C365.41 80.54 364.37 78.49 363.85 76.38C363.43 74.78 363.22 72.5 363.22 69.54V52.64C363.22 48.1 366.9 44.41 371.45 44.41H373.82C374.9 44.41 375.78 45.29 375.78 46.37V67.65C375.78 70.36 376.2 72.35 377.04 73.63C378.07 75.23 379.9 76.03 382.51 76.03C387.31 76.03 389.72 73.18 389.72 67.49V46.37C389.72 45.29 390.6 44.41 391.68 44.41H400.31C401.39 44.41 402.27 45.29 402.27 46.37V84.45C402.27 85.53 401.39 86.41 400.31 86.41H392.34V86.42Z" fill="white"/>
<path d="M443.78 81.24C439.86 85.65 434.92 87.85 428.96 87.85C423.74 87.85 419.53 86.11 416.32 82.64V98.45C416.32 99.53 415.44 100.41 414.36 100.41H405.73C404.65 100.41 403.77 99.53 403.77 98.45V53.8C403.77 48.61 407.98 44.41 413.16 44.41H413.59C414.67 44.41 415.55 45.29 415.55 46.37V49.02H415.81C419.01 44.98 423.37 42.96 428.89 42.96C435.17 42.96 440.22 45.25 444.04 49.83C447.61 54.12 449.4 59.45 449.4 65.83C449.39 71.87 447.52 77.01 443.78 81.24ZM433.84 57.86C431.82 55.77 429.31 54.72 426.3 54.72C423.29 54.72 420.79 55.77 418.8 57.86C416.81 59.9 415.81 62.44 415.81 65.47C415.81 68.43 416.81 70.94 418.8 73.01C420.85 75.08 423.35 76.11 426.3 76.11C429.28 76.11 431.78 75.07 433.8 73.01C435.82 70.94 436.83 68.43 436.83 65.47C436.83 62.44 435.83 59.9 433.84 57.86Z" fill="white"/>
<path d="M66.72 86.09H39.97C36.19 86.09 32.0201 83.03 30.6401 79.25L2.23004 1.19C1.99004 0.53 2.33005 0 2.99005 0H24.5801C28.3601 0 32.5301 3.06 33.9101 6.84C33.9101 6.84 53.3601 61.89 60.5301 79.98C60.9001 80.92 61.0501 81.5 62.6701 83.38C64.5201 85.55 66.72 86.09 66.72 86.09Z" fill="white"/>
<path d="M94.5801 86.09H72.99C69.21 86.09 65.0401 83.03 63.6601 79.25L46.3101 31.59C46.0701 30.93 46.4101 30.4 47.0701 30.4H68.6601C72.4401 30.4 76.61 33.46 77.99 37.24L95.34 84.9C95.57 85.56 95.2301 86.09 94.5801 86.09Z" fill="white"/>
<path d="M29.35 83.49C29.05 83.13 28.8601 82.67 28.6901 82.33C25.8901 76.73 19.9401 59.4 19.9401 59.4C19.8501 59.19 19.7401 59.03 19.5801 58.9C19.0401 58.44 18.1701 58.47 17.7101 59.11L0.560059 83.62L0.23999 84.08C-0.35001 84.92 0.26002 86.08 1.27002 86.08H6.71008H30.14H33.4601C33.4501 86.09 31.21 85.67 29.35 83.49Z" fill="white"/>
<path d="M14.7001 143.83H12.79L9.51001 131.56H9.46008L6.19006 143.83H4.27002L0 128.87H1.54004L5.19006 141.91H5.22998L8.79004 128.87H10.1801L13.77 141.89H13.8101L17.4601 128.87H18.98L14.7001 143.83Z" fill="white"/>
<path d="M35.22 143.83V137.75C35.22 137.16 35.14 136.61 34.99 136.11C34.81 135.52 34.54 135.06 34.17 134.71C33.5 134.08 32.7 133.76 31.77 133.76C30.84 133.76 30.03 134.08 29.36 134.71C29 135.05 28.73 135.51 28.55 136.07C28.4 136.56 28.3201 137.08 28.3201 137.64V143.83H26.91V128.87H28.3201V134.19H28.36C29.09 133.06 30.23 132.49 31.77 132.49C33.32 132.49 34.52 132.98 35.39 133.97C36.22 134.92 36.63 136.18 36.63 137.75V143.83H35.22Z" fill="white"/>
<path d="M56.74 138.82H46.67C46.72 139.91 47.18 140.85 48.04 141.64C48.9 142.43 49.8701 142.83 50.9601 142.83C51.8301 142.83 52.62 142.6 53.35 142.14C54.1 141.66 54.62 141.02 54.92 140.22H56.42C56.01 141.38 55.3101 142.32 54.3101 143.03C53.3101 143.75 52.2 144.11 50.98 144.11C49.39 144.11 48.03 143.54 46.89 142.4C45.77 141.27 45.2101 139.91 45.2101 138.32C45.2101 136.73 45.77 135.37 46.89 134.22C48.02 133.07 49.3801 132.49 50.9601 132.49C52.5701 132.49 53.9401 133.08 55.0701 134.26C56.2001 135.43 56.76 136.81 56.76 138.42L56.74 138.82ZM55.3101 137.55C55.1301 136.46 54.64 135.56 53.84 134.84C53.04 134.12 52.08 133.76 50.99 133.76C49.9 133.76 48.94 134.12 48.13 134.84C47.33 135.55 46.85 136.45 46.67 137.55H55.3101Z" fill="white"/>
<path d="M69.9501 133.99C67.8501 134.16 66.79 135.29 66.79 137.37V143.83H65.38V132.77H66.79V134.37H66.8301C67.1201 133.7 67.5401 133.22 68.0801 132.93C68.5301 132.69 69.1501 132.55 69.9501 132.48V133.99Z" fill="white"/>
<path d="M88.9 138.82H78.8301C78.8901 139.91 79.3401 140.85 80.2001 141.64C81.0501 142.43 82.03 142.83 83.12 142.83C83.99 142.83 84.78 142.6 85.51 142.14C86.26 141.66 86.7901 141.02 87.0801 140.22H88.5801C88.1701 141.38 87.47 142.32 86.47 143.03C85.47 143.75 84.36 144.11 83.14 144.11C81.55 144.11 80.19 143.54 79.05 142.4C77.93 141.27 77.37 139.91 77.37 138.32C77.37 136.73 77.93 135.37 79.05 134.22C80.18 133.07 81.54 132.49 83.12 132.49C84.73 132.49 86.09 133.08 87.23 134.26C88.36 135.43 88.92 136.81 88.92 138.42L88.9 138.82ZM87.47 137.55C87.28 136.46 86.79 135.56 86 134.84C85.2 134.12 84.25 133.76 83.15 133.76C82.06 133.76 81.11 134.12 80.3 134.84C79.5 135.55 79.02 136.45 78.84 137.55H87.47Z" fill="white"/>
<path d="M112.17 144.1C111.18 144.1 110.37 143.78 109.73 143.13C109.09 142.48 108.77 141.67 108.77 140.68V140.55H110.18C110.21 142.06 110.87 142.82 112.16 142.82C113.54 142.82 114.22 142.16 114.22 140.83C114.22 140.18 113.96 139.67 113.42 139.29C113.21 139.14 112.93 138.99 112.59 138.85L111.65 138.49C111.25 138.34 110.94 138.2 110.7 138.08C110.37 137.91 110.1 137.72 109.88 137.53C109.35 137.04 109.08 136.38 109.08 135.56C109.08 134.66 109.38 133.92 109.98 133.35C110.57 132.78 111.32 132.49 112.23 132.49C113.08 132.49 113.79 132.78 114.37 133.36C114.95 133.94 115.24 134.65 115.24 135.5H113.83C113.76 134.34 113.21 133.76 112.17 133.76C111.05 133.76 110.49 134.31 110.49 135.42C110.49 135.97 110.76 136.41 111.29 136.74C111.5 136.87 111.77 136.99 112.12 137.12L112.35 137.21C112.4 137.23 112.48 137.26 112.59 137.3L113.06 137.48C113.44 137.63 113.76 137.78 114.01 137.91C114.34 138.09 114.61 138.29 114.83 138.51C115.37 139.06 115.63 139.79 115.63 140.71C115.65 142.98 114.49 144.1 112.17 144.1Z" fill="white"/>
<path d="M134.86 140.58C133.67 142.93 131.84 144.1 129.36 144.1C127.71 144.1 126.32 143.55 125.17 142.44C124 141.32 123.42 139.95 123.42 138.31C123.42 136.69 124.01 135.31 125.18 134.17C126.34 133.04 127.74 132.48 129.36 132.48C130.58 132.48 131.68 132.8 132.67 133.44C133.69 134.1 134.41 134.99 134.86 136.11H133.3C132.48 134.54 131.18 133.76 129.4 133.76C128.13 133.76 127.05 134.19 126.17 135.06C125.27 135.93 124.82 137 124.82 138.27C124.82 139.55 125.26 140.63 126.14 141.51C127.02 142.39 128.1 142.82 129.39 142.82C131.21 142.82 132.51 142.07 133.29 140.57H134.86V140.58Z" fill="white"/>
<path d="M143.46 131.43V128.87H144.87V131.43H143.46ZM143.46 143.83V132.77H144.87V143.83H143.46Z" fill="white"/>
<path d="M164.93 138.82H154.86C154.91 139.91 155.37 140.85 156.23 141.64C157.09 142.43 158.06 142.83 159.15 142.83C160.02 142.83 160.81 142.6 161.54 142.14C162.29 141.66 162.81 141.02 163.11 140.22H164.61C164.2 141.38 163.5 142.32 162.5 143.03C161.5 143.75 160.39 144.11 159.17 144.11C157.58 144.11 156.22 143.54 155.08 142.4C153.96 141.27 153.4 139.91 153.4 138.32C153.4 136.73 153.96 135.37 155.08 134.22C156.21 133.07 157.57 132.49 159.15 132.49C160.76 132.49 162.13 133.08 163.26 134.26C164.39 135.43 164.95 136.81 164.95 138.42L164.93 138.82ZM163.5 137.55C163.32 136.46 162.83 135.56 162.03 134.84C161.23 134.12 160.27 133.76 159.18 133.76C158.09 133.76 157.13 134.12 156.32 134.84C155.52 135.55 155.04 136.45 154.86 137.55H163.5Z" fill="white"/>
<path d="M181.89 143.83V137.75C181.89 137.16 181.81 136.61 181.65 136.11C181.47 135.52 181.2 135.06 180.83 134.71C180.16 134.08 179.36 133.76 178.43 133.76C177.5 133.76 176.69 134.08 176.02 134.71C175.66 135.05 175.39 135.51 175.21 136.07C175.06 136.56 174.98 137.08 174.98 137.64V143.83H173.57V132.77H174.98V134.18H175.02C175.75 133.05 176.89 132.48 178.43 132.48C179.98 132.48 181.18 132.97 182.05 133.96C182.88 134.91 183.3 136.17 183.3 137.74V143.82H181.89V143.83Z" fill="white"/>
<path d="M203.32 140.58C202.13 142.93 200.3 144.1 197.82 144.1C196.17 144.1 194.77 143.55 193.62 142.44C192.46 141.32 191.88 139.95 191.88 138.31C191.88 136.69 192.46 135.31 193.64 134.17C194.81 133.04 196.2 132.48 197.83 132.48C199.05 132.48 200.15 132.8 201.14 133.44C202.15 134.1 202.88 134.99 203.33 136.11H201.77C200.95 134.54 199.65 133.76 197.87 133.76C196.6 133.76 195.52 134.19 194.64 135.06C193.75 135.93 193.3 137 193.3 138.27C193.3 139.55 193.74 140.63 194.62 141.51C195.5 142.39 196.58 142.82 197.87 142.82C199.69 142.82 200.99 142.07 201.77 140.57H203.32V140.58Z" fill="white"/>
<path d="M222.89 138.82H212.82C212.87 139.91 213.33 140.85 214.19 141.64C215.05 142.43 216.02 142.83 217.11 142.83C217.98 142.83 218.77 142.6 219.5 142.14C220.25 141.66 220.77 141.02 221.07 140.22H222.57C222.16 141.38 221.46 142.32 220.46 143.03C219.46 143.75 218.35 144.11 217.14 144.11C215.55 144.11 214.19 143.54 213.05 142.4C211.93 141.27 211.37 139.91 211.37 138.32C211.37 136.73 211.93 135.37 213.05 134.22C214.18 133.07 215.54 132.49 217.12 132.49C218.73 132.49 220.1 133.08 221.23 134.26C222.36 135.43 222.92 136.81 222.92 138.42L222.89 138.82ZM221.46 137.55C221.28 136.46 220.79 135.56 219.99 134.84C219.19 134.12 218.23 133.76 217.14 133.76C216.05 133.76 215.09 134.12 214.28 134.84C213.48 135.55 213 136.45 212.82 137.55H221.46Z" fill="white"/>
<path d="M258.49 143.83V137.42C258.49 136.35 258.26 135.49 257.81 134.85C257.29 134.12 256.51 133.75 255.48 133.75C254.45 133.75 253.68 134.11 253.16 134.85C252.7 135.49 252.47 136.34 252.47 137.42V143.83H251.06V137.42C251.06 136.35 250.83 135.49 250.37 134.85C249.85 134.12 249.08 133.75 248.05 133.75C247.02 133.75 246.24 134.11 245.72 134.85C245.26 135.49 245.03 136.34 245.03 137.42V143.83H243.62V132.77H245.03V134.04C245.69 133 246.69 132.48 248.05 132.48C249.74 132.48 250.97 133.19 251.76 134.6C252.65 133.18 253.89 132.48 255.48 132.48C256.86 132.48 257.95 132.94 258.76 133.85C259.53 134.72 259.91 135.85 259.91 137.24V143.81H258.49V143.83Z" fill="white"/>
<path d="M279.99 138.82H269.92C269.97 139.91 270.43 140.85 271.29 141.64C272.15 142.43 273.12 142.83 274.21 142.83C275.08 142.83 275.87 142.6 276.6 142.14C277.35 141.66 277.87 141.02 278.17 140.22H279.67C279.26 141.38 278.56 142.32 277.56 143.03C276.56 143.75 275.45 144.11 274.24 144.11C272.65 144.11 271.29 143.54 270.15 142.4C269.03 141.27 268.47 139.91 268.47 138.32C268.47 136.73 269.03 135.37 270.15 134.22C271.28 133.07 272.64 132.49 274.22 132.49C275.83 132.49 277.2 133.08 278.33 134.26C279.46 135.43 280.02 136.81 280.02 138.42L279.99 138.82ZM278.56 137.55C278.38 136.46 277.89 135.56 277.09 134.84C276.29 134.12 275.33 133.76 274.24 133.76C273.15 133.76 272.19 134.12 271.38 134.84C270.58 135.55 270.1 136.45 269.92 137.55H278.56Z" fill="white"/>
<path d="M299.6 138.82H289.53C289.58 139.91 290.04 140.85 290.9 141.64C291.76 142.43 292.73 142.83 293.82 142.83C294.69 142.83 295.48 142.6 296.21 142.14C296.96 141.66 297.48 141.02 297.78 140.22H299.28C298.87 141.38 298.17 142.32 297.17 143.03C296.17 143.75 295.06 144.11 293.85 144.11C292.26 144.11 290.9 143.54 289.76 142.4C288.64 141.27 288.08 139.91 288.08 138.32C288.08 136.73 288.64 135.37 289.76 134.22C290.89 133.07 292.25 132.49 293.83 132.49C295.44 132.49 296.81 133.08 297.94 134.26C299.07 135.43 299.63 136.81 299.63 138.42L299.6 138.82ZM298.17 137.55C297.99 136.46 297.5 135.56 296.7 134.84C295.9 134.12 294.94 133.76 293.85 133.76C292.76 133.76 291.8 134.12 290.99 134.84C290.19 135.55 289.71 136.45 289.53 137.55H298.17Z" fill="white"/>
<path d="M310.95 134.05V143.83H309.54V134.05H307.21V132.78H309.54V128.87H310.95V132.78H313.6V134.05H310.95Z" fill="white"/>
<path d="M324.13 144.1C323.14 144.1 322.33 143.78 321.69 143.13C321.05 142.48 320.73 141.67 320.73 140.68V140.55H322.14C322.17 142.06 322.83 142.82 324.12 142.82C325.5 142.82 326.18 142.16 326.18 140.83C326.18 140.18 325.92 139.67 325.38 139.29C325.17 139.14 324.89 138.99 324.55 138.85L323.61 138.49C323.21 138.34 322.9 138.2 322.66 138.08C322.33 137.91 322.06 137.72 321.84 137.53C321.31 137.04 321.04 136.38 321.04 135.56C321.04 134.66 321.34 133.92 321.94 133.35C322.53 132.78 323.28 132.49 324.19 132.49C325.04 132.49 325.75 132.78 326.33 133.36C326.91 133.94 327.2 134.65 327.2 135.5H325.79C325.72 134.34 325.17 133.76 324.13 133.76C323.01 133.76 322.45 134.31 322.45 135.42C322.45 135.97 322.72 136.41 323.25 136.74C323.46 136.87 323.73 136.99 324.08 137.12L324.31 137.21C324.37 137.23 324.44 137.26 324.55 137.3L325.02 137.48C325.4 137.63 325.72 137.78 325.97 137.91C326.3 138.09 326.57 138.29 326.79 138.51C327.33 139.06 327.59 139.79 327.59 140.71C327.6 142.98 326.44 144.1 324.13 144.1Z" fill="white"/>
<path d="M357.98 142.43C356.84 143.54 355.43 144.1 353.77 144.1C351.91 144.1 350.47 143.36 349.46 141.89H349.42V143.83H348.01V128.87H349.42V134.71H349.46C350.5 133.23 351.94 132.49 353.77 132.49C355.41 132.49 356.81 133.04 357.95 134.14C359.12 135.25 359.71 136.63 359.71 138.28C359.71 139.94 359.13 141.32 357.98 142.43ZM357.01 135.07C356.16 134.2 355.07 133.77 353.77 133.77C352.52 133.77 351.47 134.22 350.61 135.12C349.76 136.01 349.34 137.07 349.34 138.32C349.34 139.56 349.76 140.62 350.61 141.5C351.47 142.39 352.52 142.83 353.77 142.83C355.06 142.83 356.14 142.4 357 141.56C357.86 140.7 358.29 139.63 358.29 138.34C358.28 137.03 357.86 135.94 357.01 135.07Z" fill="white"/>
<path d="M379.15 138.82H369.08C369.14 139.91 369.59 140.85 370.45 141.64C371.3 142.43 372.28 142.83 373.37 142.83C374.24 142.83 375.03 142.6 375.76 142.14C376.51 141.66 377.04 141.02 377.33 140.22H378.83C378.42 141.38 377.72 142.32 376.72 143.03C375.72 143.75 374.61 144.11 373.39 144.11C371.8 144.11 370.44 143.54 369.3 142.4C368.18 141.27 367.62 139.91 367.62 138.32C367.62 136.73 368.18 135.37 369.3 134.22C370.43 133.07 371.79 132.49 373.37 132.49C374.98 132.49 376.34 133.08 377.48 134.26C378.61 135.43 379.17 136.81 379.17 138.42L379.15 138.82ZM377.72 137.55C377.53 136.46 377.04 135.56 376.25 134.84C375.45 134.12 374.5 133.76 373.4 133.76C372.31 133.76 371.36 134.12 370.55 134.84C369.75 135.55 369.27 136.45 369.09 137.55H377.72Z" fill="white"/>
<path d="M397.62 143.83V141.89H397.58C396.6 143.36 395.17 144.1 393.28 144.1C391.62 144.1 390.21 143.54 389.06 142.43C387.91 141.32 387.33 139.93 387.33 138.27C387.33 136.63 387.91 135.25 389.07 134.13C390.22 133.03 391.62 132.48 393.27 132.48C395.2 132.48 396.63 133.22 397.57 134.7H397.61V132.76H399.03V143.82H397.62V143.83ZM396.43 135.12C395.57 134.22 394.52 133.77 393.27 133.77C391.96 133.77 390.88 134.2 390.02 135.07C389.17 135.94 388.74 137.03 388.74 138.34C388.74 139.63 389.17 140.7 390.03 141.56C390.89 142.41 391.97 142.83 393.27 142.83C394.51 142.83 395.56 142.38 396.43 141.5C397.28 140.62 397.71 139.56 397.71 138.32C397.71 137.07 397.28 136.01 396.43 135.12Z" fill="white"/>
<path d="M416.35 143.83V142.11H416.31C416 142.76 415.51 143.26 414.84 143.61C414.23 143.93 413.53 144.09 412.77 144.09C411.11 144.09 409.84 143.54 408.97 142.43C408.61 141.97 408.35 141.41 408.19 140.74C408.07 140.2 408 139.57 408 138.86V132.76H409.41V138.84C409.41 140.08 409.65 141.02 410.14 141.68C410.7 142.43 411.57 142.81 412.76 142.81C413.69 142.81 414.48 142.51 415.11 141.91C415.56 141.48 415.87 140.98 416.05 140.39C416.19 139.92 416.27 139.33 416.27 138.6V132.75H417.68V143.81H416.35V143.83Z" fill="white"/>
<path d="M429.53 134.05V143.83H428.12V134.05H425.79V132.78H428.12V128.87H429.53V132.78H432.18V134.05H429.53Z" fill="white"/>
<path d="M442.99 147.71H441.52L443.44 143.47L439.14 132.78H440.64L444.15 141.6L447.91 132.78H449.4L442.99 147.71Z" fill="white"/>
</svg>
